<svg viewBox="0 0 95.6 48" fill="none" overflow="visible" xmlns="http://www.w3.org/2000/svg" aria-label="말랑 가계부">
  <g transform="translate(0 2)">
    <defs><clipPath id="moreOverlapFull"><path d="M 19.00 11.00 A 5.50 5.50 0 0 1 28.53 16.50 A 5.50 5.50 0 0 1 28.53 27.50 A 5.50 5.50 0 0 1 19.00 33.00 A 5.50 5.50 0 0 1 9.47 27.50 A 5.50 5.50 0 0 1 9.47 16.50 A 5.50 5.50 0 0 1 19.00 11.00 Z"></path></clipPath></defs>
    <path d="M 19.00 11.00 A 5.50 5.50 0 0 1 28.53 16.50 A 5.50 5.50 0 0 1 28.53 27.50 A 5.50 5.50 0 0 1 19.00 33.00 A 5.50 5.50 0 0 1 9.47 27.50 A 5.50 5.50 0 0 1 9.47 16.50 A 5.50 5.50 0 0 1 19.00 11.00 Z" fill="#4CAF86"></path>
    <path d="M 29.00 11.00 A 5.50 5.50 0 0 1 38.53 16.50 A 5.50 5.50 0 0 1 38.53 27.50 A 5.50 5.50 0 0 1 29.00 33.00 A 5.50 5.50 0 0 1 19.47 27.50 A 5.50 5.50 0 0 1 19.47 16.50 A 5.50 5.50 0 0 1 29.00 11.00 Z" fill="#E8837A"></path>
    <g clip-path="url(#moreOverlapFull)"><path d="M 29.00 11.00 A 5.50 5.50 0 0 1 38.53 16.50 A 5.50 5.50 0 0 1 38.53 27.50 A 5.50 5.50 0 0 1 29.00 33.00 A 5.50 5.50 0 0 1 19.47 27.50 A 5.50 5.50 0 0 1 19.47 16.50 A 5.50 5.50 0 0 1 29.00 11.00 Z" fill="#C76A6F"></path></g>
    <path d="M 24 21.6 C 22.3 19 19.6 20.1 19.6 22.2 C 19.6 23.8 21.4 25.1 24 26.8 C 26.6 25.1 28.4 23.8 28.4 22.2 C 28.4 20.1 25.7 19 24 21.6 Z" fill="#ffffff" opacity="0.92"></path>
  </g>
  <g transform="translate(48.68 30.71)" fill="#E8837A" stroke="#E8837A" stroke-width="1" stroke-linejoin="round" stroke-linecap="round" paint-order="stroke">
    <path d="M8.26-6.55C9.12-6.55 10.06-6.46 10.90-6.79C11.66-7.08 11.83-8.16 11.83-8.83C11.83-9.26 11.78-9.67 11.83-10.08C11.83-10.27 11.81-10.46 11.83-10.63L11.83-11.95C11.81-12.46 11.83-12.48 11.83-12.98C11.83-13.90 12.07-15.17 11.14-15.77C10.54-16.15 9.67-16.22 8.98-16.22L3.55-16.22C3.55-16.22 2.54-16.18 2.18-16.13C1.70-16.03 1.44-15.86 1.15-15.41C0.91-15.02 0.91-14.09 0.91-13.90C0.91-13.90 0.91-13.15 0.89-12C0.86-10.92 0.86-10.13 0.86-10.13C0.86-10.06 0.74-8.11 1.30-7.27C1.80-6.53 3.02-6.55 4.15-6.55L4.18-6.55C4.70-6.58 7.80-6.50 8.26-6.55M16.75 0.96L4.75 0.96L4.75-0.17L15.91-0.17C16.30-0.17 16.73-0.14 17.16-0.38C17.66-0.70 17.83-1.15 17.83-1.58L17.83-3.46C17.83-4.58 16.92-5.04 15.31-5.04L4.70-5.04C4.56-5.04 4.42-5.06 4.27-5.06L3.86-5.06C3.58-5.06 3.34-5.04 3.10-5.02C2.74-4.94 2.02-4.87 1.85-4.37C1.75-3.98 1.80-3.67 2.02-3.34C2.18-3.07 2.42-3.07 2.69-3C2.93-2.95 3.19-2.95 3.50-2.95L4.10-2.95C4.27-2.98 4.46-2.95 4.63-2.95L15.07-2.95L15.07-1.92L4.87-1.92C4.78-1.92 4.66-1.94 4.54-1.94L4.03-1.94C3.34-1.94 2.47-1.87 2.06-1.42C1.78-1.08 1.78-0.53 1.80-0.17L1.80 0.05C1.80 0.48 1.82 1.25 1.87 1.78C1.94 2.50 2.42 3 3.10 3.02C3.79 3.05 4.49 3.05 5.14 3.05L16.06 3.05C16.39 3.05 16.82 3.05 17.21 2.88C17.78 2.66 18 2.26 17.83 1.68C17.66 1.18 17.23 0.98 16.75 0.96M18.26-9.70C19.20-9.72 20.02-9.70 20.40-10.32C20.59-10.63 20.57-11.18 20.47-11.52C20.40-11.86 20.18-12.12 19.56-12.24C19.27-12.31 17.98-12.34 17.71-12.36L17.71-14.06C17.74-14.38 17.74-15.05 17.64-15.34C17.57-15.60 17.52-15.84 17.33-16.08C17.06-16.37 16.56-16.51 16.01-16.44C15.55-16.39 15.19-16.18 15.05-15.86C14.86-15.48 14.81-14.74 14.83-14.62L14.83-7.44C14.83-7.20 14.93-6.50 15.58-6.12C15.77-6 16.01-5.95 16.25-5.95C17.23-5.95 17.71-6.67 17.71-7.51L17.71-9.70M8.14-13.18C8.42-13.18 8.76-13.18 8.88-12.84C8.95-12.60 8.90-12.31 8.93-12.07C8.95-11.57 8.93-11.52 8.93-11.02C8.93-10.66 8.90-10.32 8.83-9.98C8.83-9.86 8.81-9.77 8.78-9.67C8.74-9.48 8.66-9.34 8.40-9.31C8.14-9.26 7.87-9.29 7.61-9.29C6.74-9.29 6.36-9.31 5.52-9.29L5.50-9.29C4.92-9.29 4.27-9.29 4.01-9.60C3.72-9.96 3.77-10.78 3.77-10.80C3.77-10.80 3.77-11.26 3.79-11.71L3.79-12.24C3.79-12.31 3.79-12.72 3.91-12.89C4.08-13.08 4.20-13.15 4.46-13.18C4.66-13.22 4.90-13.22 5.18-13.22M22.49-0.82C22.49 2.38 26.09 2.88 30.50 2.88C34.92 2.88 38.52 2.38 38.52-0.82C38.52-4.06 34.92-4.51 30.50-4.51C26.09-4.51 22.49-3.72 22.49-0.82M31.42-5.98C31.99-6.22 32.21-6.65 32.02-7.27C31.87-7.75 31.46-8.16 30.94-8.18C30.62-8.21 30.29-8.21 29.98-8.21L24.50-8.21L24.50-9.79L30.05-9.79C30.48-9.77 30.94-9.77 31.34-10.03C31.85-10.34 32.04-11.21 32.04-11.69L32.04-14.26C32.04-15.48 31.08-16.18 29.42-16.18L24.55-16.18C24.38-16.18 24.24-16.20 24.07-16.20L23.64-16.20C23.35-16.20 23.09-16.18 22.85-16.13C22.46-16.08 21.74-15.82 21.58-15.26C21.46-14.86 21.53-14.35 21.74-13.97C21.91-13.70 22.13-13.51 22.42-13.44C22.66-13.39 22.94-13.37 23.26-13.37C23.47-13.37 23.69-13.37 23.88-13.39C24.07-13.39 24.26-13.42 24.46-13.42L29.26-13.42L29.26-12L23.83-12C23.09-12 22.20-11.95 21.77-11.42C21.48-11.06 21.50-10.63 21.53-10.27L21.53-10.03C21.53-9.50 21.53-7.78 21.60-7.18C21.67-6.38 22.15-5.86 22.85-5.83C23.59-5.78 24.34-5.78 25.03-5.78L30.22-5.78C30.62-5.78 31.03-5.83 31.42-5.98M38.09-14.30C38.11-14.64 38.11-15.02 38.02-15.34C37.94-15.60 37.90-15.84 37.70-16.08C37.44-16.37 36.94-16.51 36.38-16.44C35.93-16.39 35.57-16.18 35.42-15.86C35.23-15.48 35.18-14.74 35.21-14.62L35.21-6.98C35.21-6.96 35.30-6.07 35.95-5.69C36.14-5.57 36.38-5.52 36.62-5.52C36.89-5.52 37.18-5.59 37.42-5.76C37.58-5.88 37.73-6.05 37.82-6.24C38.02-6.60 38.06-6.98 38.09-7.32L38.09-9.22L38.64-9.22C39.58-9.24 40.39-9.22 40.78-9.84C40.97-10.15 40.94-10.70 40.85-11.04C40.78-11.38 40.56-11.64 39.94-11.76C39.65-11.83 38.35-11.86 38.09-11.88C38.06-12.34 38.09-14.35 38.09-14.30M35.28-0.82C35.28 0.48 32.74 0.36 30.50 0.36C28.27 0.36 25.87 0.17 25.87-0.82C25.87-1.92 28.27-2.02 30.50-2.02C32.74-2.02 35.28-1.92 35.28-0.82"></path>
  </g>
</svg>