<svg viewBox="0 0 120 48" fill="none" overflow="visible" xmlns="http://www.w3.org/2000/svg" aria-label="MOA">
  <g transform="translate(0 2)">
    <defs><clipPath id="moreOverlapFull"><path d="M 19.00 11.00 A 5.50 5.50 0 0 1 28.53 16.50 A 5.50 5.50 0 0 1 28.53 27.50 A 5.50 5.50 0 0 1 19.00 33.00 A 5.50 5.50 0 0 1 9.47 27.50 A 5.50 5.50 0 0 1 9.47 16.50 A 5.50 5.50 0 0 1 19.00 11.00 Z"></path></clipPath></defs>
    <path d="M 19.00 11.00 A 5.50 5.50 0 0 1 28.53 16.50 A 5.50 5.50 0 0 1 28.53 27.50 A 5.50 5.50 0 0 1 19.00 33.00 A 5.50 5.50 0 0 1 9.47 27.50 A 5.50 5.50 0 0 1 9.47 16.50 A 5.50 5.50 0 0 1 19.00 11.00 Z" fill="#4CAF86"></path>
    <path d="M 29.00 11.00 A 5.50 5.50 0 0 1 38.53 16.50 A 5.50 5.50 0 0 1 38.53 27.50 A 5.50 5.50 0 0 1 29.00 33.00 A 5.50 5.50 0 0 1 19.47 27.50 A 5.50 5.50 0 0 1 19.47 16.50 A 5.50 5.50 0 0 1 29.00 11.00 Z" fill="#E8837A"></path>
    <g clip-path="url(#moreOverlapFull)"><path d="M 29.00 11.00 A 5.50 5.50 0 0 1 38.53 16.50 A 5.50 5.50 0 0 1 38.53 27.50 A 5.50 5.50 0 0 1 29.00 33.00 A 5.50 5.50 0 0 1 19.47 27.50 A 5.50 5.50 0 0 1 19.47 16.50 A 5.50 5.50 0 0 1 29.00 11.00 Z" fill="#C76A6F"></path></g>
    <path d="M 24 21.6 C 22.3 19 19.6 20.1 19.6 22.2 C 19.6 23.8 21.4 25.1 24 26.8 C 26.6 25.1 28.4 23.8 28.4 22.2 C 28.4 20.1 25.7 19 24 21.6 Z" fill="#ffffff" opacity="0.92"></path>
  </g>
  <g transform="translate(49.63 33.12)" fill="#E8837A" stroke="#E8837A" stroke-width="1.7" stroke-linejoin="round" stroke-linecap="round" paint-order="stroke">
    <path d="M13.05-4.74L13.05-4.74Q12.84-4.59 12.49-4.47Q12.15-4.35 11.73-4.35L11.73-4.35Q11.25-4.35 10.88-4.50Q10.50-4.65 10.35-4.98L10.35-4.98Q8.76-8.34 7.57-11.13Q6.39-13.92 5.67-15.75L5.67-15.75L5.55-15.75Q5.46-13.50 5.35-11.55Q5.25-9.60 5.13-7.79Q5.01-5.97 4.91-4.06Q4.80-2.16 4.65 0L4.65 0Q4.47 0.06 4.18 0.12Q3.90 0.18 3.57 0.18L3.57 0.18Q2.91 0.18 2.64-0.10Q2.37-0.39 2.37-0.87L2.37-0.87Q2.37-1.23 2.44-2.53Q2.52-3.84 2.63-5.73Q2.73-7.62 2.88-9.76Q3.03-11.91 3.19-13.99Q3.36-16.08 3.51-17.76L3.51-17.76Q3.75-17.97 4.20-18.15Q4.65-18.33 5.22-18.33L5.22-18.33Q5.91-18.33 6.39-18.06Q6.87-17.79 7.14-17.22L7.14-17.22Q7.92-15.69 8.70-13.89Q9.48-12.09 10.23-10.29Q10.98-8.49 11.67-6.90L11.67-6.90L11.79-6.90Q13.11-10.08 14.41-13.02Q15.72-15.96 16.62-18.03L16.62-18.03Q16.89-18.18 17.31-18.25Q17.73-18.33 18.09-18.33L18.09-18.33Q18.78-18.33 19.18-18.11Q19.59-17.88 19.71-17.37L19.71-17.37Q19.83-16.86 19.98-15.63Q20.13-14.40 20.28-12.73Q20.43-11.07 20.56-9.24Q20.70-7.41 20.82-5.64Q20.94-3.87 21.04-2.44Q21.15-1.02 21.18-0.18L21.18-0.18Q20.91 0 20.61 0.09Q20.31 0.18 19.92 0.18L19.92 0.18Q19.47 0.18 19.13-0.04Q18.78-0.27 18.72-0.87L18.72-0.87Q18.54-3.78 18.38-6.61Q18.21-9.45 18.09-11.82Q17.97-14.19 17.88-15.69L17.88-15.69L17.76-15.69Q17.10-14.04 15.96-11.45Q14.82-8.85 13.05-4.74ZM42.42-9.12L42.42-9.12Q42.42-6 41.28-3.88Q40.14-1.77 38.17-0.69Q36.21 0.39 33.72 0.39L33.72 0.39Q31.26 0.39 29.28-0.69Q27.30-1.77 26.16-3.88Q25.02-6 25.02-9.12L25.02-9.12Q25.02-12.24 26.19-14.35Q27.36-16.47 29.32-17.55Q31.29-18.63 33.72-18.63L33.72-18.63Q36.18-18.63 38.14-17.55Q40.11-16.47 41.27-14.35Q42.42-12.24 42.42-9.12ZM39.93-9.12L39.93-9.12Q39.93-12.69 38.23-14.63Q36.54-16.56 33.72-16.56L33.72-16.56Q30.93-16.56 29.23-14.63Q27.54-12.69 27.54-9.12L27.54-9.12Q27.54-5.55 29.22-3.61Q30.90-1.68 33.72-1.68L33.72-1.68Q36.57-1.68 38.25-3.61Q39.93-5.55 39.93-9.12ZM53.01-16.35L53.01-16.35L52.89-16.35Q52.44-15.09 51.82-13.35Q51.21-11.61 50.56-9.76Q49.92-7.92 49.35-6.33L49.35-6.33L49.20-5.88Q49.02-5.34 48.75-4.53Q48.48-3.72 48.18-2.83Q47.88-1.95 47.61-1.19Q47.34-0.42 47.19 0.06L47.19 0.06Q46.98 0.15 46.75 0.20Q46.53 0.24 46.20 0.24L46.20 0.24Q45.72 0.24 45.34-0.01Q44.97-0.27 44.97-0.84L44.97-0.84Q44.97-1.11 45.06-1.40Q45.15-1.68 45.27-2.01L45.27-2.01Q45.63-3.03 46.15-4.50Q46.68-5.97 47.31-7.71Q47.94-9.45 48.63-11.28Q49.32-13.11 49.98-14.85Q50.64-16.59 51.21-18.03L51.21-18.03Q51.45-18.15 51.93-18.27Q52.41-18.39 52.92-18.39L52.92-18.39Q53.52-18.39 54.07-18.21Q54.63-18.03 54.78-17.61L54.78-17.61Q55.50-15.87 56.32-13.66Q57.15-11.46 57.99-9.07Q58.83-6.69 59.59-4.44Q60.36-2.19 60.96-0.36L60.96-0.36Q60.75-0.09 60.40 0.07Q60.06 0.24 59.64 0.24L59.64 0.24Q59.07 0.24 58.77-0.01Q58.47-0.27 58.26-0.87L58.26-0.87L56.61-5.76L56.37-6.60Q55.77-8.43 55.12-10.29Q54.48-12.15 53.92-13.74Q53.37-15.33 53.01-16.35ZM57.66-4.86L48.03-4.86L48.81-6.87L57.18-6.87L57.66-4.86Z"></path>
  </g>
</svg>