<svg viewBox="0 0 48 48" fill="none" xmlns="http://www.w3.org/2000/svg" aria-label="MOA">
  <g transform="translate(0 2)">
    <defs><clipPath id="moreOverlapIcon"><path d="M 19.00 11.00 A 5.50 5.50 0 0 1 28.53 16.50 A 5.50 5.50 0 0 1 28.53 27.50 A 5.50 5.50 0 0 1 19.00 33.00 A 5.50 5.50 0 0 1 9.47 27.50 A 5.50 5.50 0 0 1 9.47 16.50 A 5.50 5.50 0 0 1 19.00 11.00 Z"></path></clipPath></defs>
    <path d="M 19.00 11.00 A 5.50 5.50 0 0 1 28.53 16.50 A 5.50 5.50 0 0 1 28.53 27.50 A 5.50 5.50 0 0 1 19.00 33.00 A 5.50 5.50 0 0 1 9.47 27.50 A 5.50 5.50 0 0 1 9.47 16.50 A 5.50 5.50 0 0 1 19.00 11.00 Z" fill="#4CAF86"></path>
    <path d="M 29.00 11.00 A 5.50 5.50 0 0 1 38.53 16.50 A 5.50 5.50 0 0 1 38.53 27.50 A 5.50 5.50 0 0 1 29.00 33.00 A 5.50 5.50 0 0 1 19.47 27.50 A 5.50 5.50 0 0 1 19.47 16.50 A 5.50 5.50 0 0 1 29.00 11.00 Z" fill="#E8837A"></path>
    <g clip-path="url(#moreOverlapIcon)"><path d="M 29.00 11.00 A 5.50 5.50 0 0 1 38.53 16.50 A 5.50 5.50 0 0 1 38.53 27.50 A 5.50 5.50 0 0 1 29.00 33.00 A 5.50 5.50 0 0 1 19.47 27.50 A 5.50 5.50 0 0 1 19.47 16.50 A 5.50 5.50 0 0 1 29.00 11.00 Z" fill="#C76A6F"></path></g>
    <path d="M 24 21.6 C 22.3 19 19.6 20.1 19.6 22.2 C 19.6 23.8 21.4 25.1 24 26.8 C 26.6 25.1 28.4 23.8 28.4 22.2 C 28.4 20.1 25.7 19 24 21.6 Z" fill="#ffffff" opacity="0.92"></path>
  </g>
</svg>