<svg width="512" height="512" viewBox="0 0 512 512" xmlns="http://www.w3.org/2000/svg">
  <defs>
    <linearGradient id="iconBg" x1="0%" y1="0%" x2="100%" y2="100%">
      <stop offset="0%" stop-color="#F4B0A2"/>
      <stop offset="100%" stop-color="#DC7065"/>
    </linearGradient>
    <radialGradient id="iconGlow" cx="50%" cy="50%" r="50%">
      <stop offset="0%" stop-color="#FFF8F3" stop-opacity="0.18"/>
      <stop offset="100%" stop-color="#FFF8F3" stop-opacity="0"/>
    </radialGradient>
    <!-- 하트 자체에 적용할 부드러운 vertical gradient (상단 살짝 밝게) -->
    <linearGradient id="heartFill" x1="0%" y1="0%" x2="0%" y2="100%">
      <stop offset="0%" stop-color="#FFFCF8"/>
      <stop offset="100%" stop-color="#FFF8F3"/>
    </linearGradient>
  </defs>
  <rect width="512" height="512" fill="url(#iconBg)"/>
  <!-- 중앙 부드러운 글로우 -->
  <circle cx="256" cy="256" r="220" fill="url(#iconGlow)"/>
  <!-- 크림톤 하트 (path bbox 기준 정중앙 정렬) -->
  <g transform="translate(82 105.5625) scale(7.25)">
    <path d="M24 10C23.5 7 21 3.5 16.5 3.5C9 3.5 3.5 9 3.5 16C3.5 24 15 33 22 36.5Q24 38 26 36.5C33 33 44.5 24 44.5 16C44.5 9 39 3.5 31.5 3.5C27 3.5 24.5 7 24 10Z" fill="url(#heartFill)"/>
  </g>
</svg>